<svg id="Componente_1_1" data-name="Componente 1 – 1" xmlns="http://www.w3.org/2000/svg" width="62" height="62" viewBox="0 0 62 62">
  <g id="NoPath" fill="#202020">
    <path d="M 31 61.5 C 26.88229942321777 61.5 22.8880500793457 60.69366073608398 19.1281795501709 59.10335922241211 C 15.49631977081299 57.56721878051758 12.23447036743164 55.36798858642578 9.433239936828613 52.5667610168457 C 6.632009983062744 49.76552963256836 4.432779788970947 46.50368118286133 2.896640062332153 42.87181854248047 C 1.306339979171753 39.1119499206543 0.5 35.11769866943359 0.5 31 C 0.5 26.88229942321777 1.306339979171753 22.8880500793457 2.896640062332153 19.1281795501709 C 4.432779788970947 15.49631977081299 6.632009983062744 12.23447036743164 9.433239936828613 9.433239936828613 C 12.23447036743164 6.632009983062744 15.49631977081299 4.432779788970947 19.1281795501709 2.896640062332153 C 22.8880500793457 1.306339979171753 26.88229942321777 0.5 31 0.5 C 35.11769866943359 0.5 39.1119499206543 1.306339979171753 42.87181854248047 2.896640062332153 C 46.50368118286133 4.432779788970947 49.76552963256836 6.632009983062744 52.5667610168457 9.433239936828613 C 55.36798858642578 12.23447036743164 57.56721878051758 15.49631977081299 59.10335922241211 19.1281795501709 C 60.69366073608398 22.8880500793457 61.5 26.88229942321777 61.5 31 C 61.5 35.11769866943359 60.69366073608398 39.1119499206543 59.10335922241211 42.87181854248047 C 57.56721878051758 46.50368118286133 55.36798858642578 49.76552963256836 52.5667610168457 52.5667610168457 C 49.76552963256836 55.36798858642578 46.50368118286133 57.56721878051758 42.87181854248047 59.10335922241211 C 39.1119499206543 60.69366073608398 35.11769866943359 61.5 31 61.5 Z" stroke="none"/>
    <path d="M 31 1 C 26.94958114624023 1 23.02085876464844 1.793060302734375 19.32294845581055 3.357139587402344 C 15.75069046020508 4.868080139160156 12.54227066040039 7.031330108642578 9.786800384521484 9.786800384521484 C 7.031330108642578 12.54227066040039 4.868080139160156 15.75069046020508 3.357139587402344 19.32294845581055 C 1.793060302734375 23.02085876464844 1 26.94958114624023 1 31 C 1 35.05042266845703 1.793060302734375 38.97914123535156 3.357139587402344 42.67704772949219 C 4.868080139160156 46.24930953979492 7.031330108642578 49.45772933959961 9.786800384521484 52.21319961547852 C 12.54227066040039 54.96866989135742 15.75069046020508 57.13191986083984 19.32294845581055 58.64286041259766 C 23.02085876464844 60.20693969726562 26.94958114624023 61 31 61 C 35.05042266845703 61 38.97914123535156 60.20693969726562 42.67704772949219 58.64286041259766 C 46.24930953979492 57.13191986083984 49.45772933959961 54.96866989135742 52.21319961547852 52.21319961547852 C 54.96866989135742 49.45772933959961 57.13191986083984 46.24930953979492 58.64286041259766 42.67704772949219 C 60.20693969726562 38.97914123535156 61 35.05042266845703 61 31 C 61 26.94958114624023 60.20693969726562 23.02085876464844 58.64286041259766 19.32294845581055 C 57.13191986083984 15.75069046020508 54.96866989135742 12.54227066040039 52.21319961547852 9.786800384521484 C 49.45772933959961 7.031330108642578 46.24930953979492 4.868080139160156 42.67704772949219 3.357139587402344 C 38.97914123535156 1.793060302734375 35.05042266845703 1 31 1 M 31 0 C 48.12083053588867 0 62 13.87916946411133 62 31 C 62 48.12083053588867 48.12083053588867 62 31 62 C 13.87916946411133 62 0 48.12083053588867 0 31 C 0 13.87916946411133 13.87916946411133 0 31 0 Z" stroke="none" fill="#111"/>
  </g>
  <text id="ex" transform="translate(10 43)" fill="#fff" font-size="40" font-family="Roboto-Regular, Roboto"><tspan x="0" y="0">ex</tspan></text>
</svg>
